<?xml version="1.0" standalone="no"?>
<!DOCTYPE svg PUBLIC "-//W3C//DTD SVG 20010904//EN"
 "http://www.w3.org/TR/2001/REC-SVG-20010904/DTD/svg10.dtd">
<svg version="1.0" xmlns="http://www.w3.org/2000/svg"
 width="500.000000pt" height="500.000000pt" viewBox="0 0 500.000000 500.000000"
 preserveAspectRatio="xMidYMid meet">
<metadata>
Created by potrace 1.14, written by Peter Selinger 2001-2017
</metadata>
<g transform="translate(0.000000,500.000000) scale(0.100000,-0.100000)"
fill="#000000" stroke="none">
<path d="M0 2500 l0 -2500 2500 0 2500 0 0 2500 0 2500 -2500 0 -2500 0 0
-2500z m1998 1034 c221 -45 405 -190 508 -399 52 -107 72 -179 82 -298 35
-416 -183 -756 -553 -863 -50 -14 -115 -18 -382 -21 l-323 -4 0 800 0 801 295
0 c231 0 313 -3 373 -16z m1622 8 c0 -8 -527 -1504 -552 -1565 -10 -26 -15
-28 -55 -25 l-44 3 -90 202 -90 202 3 152 3 153 120 -270 c76 -169 126 -270
136 -272 8 -1 20 7 25 20 6 13 100 335 209 716 l199 692 68 0 c37 0 68 -4 68
-8z m-2250 -1997 c7 -8 13 -26 13 -40 0 -35 -20 -55 -54 -55 -28 0 -29 1 -29
55 0 54 1 55 29 55 16 0 34 -7 41 -15z m207 8 c-29 -3 -37 -8 -35 -21 2 -9 17
-20 33 -23 l30 -7 -33 -1 c-47 -1 -41 -34 8 -42 l35 -6 -42 -2 -43 -1 0 55 0
55 43 -2 42 -1 -38 -4z m248 -25 c0 -14 3 -29 7 -33 17 -17 -13 -45 -47 -45
l-35 0 0 56 0 55 38 -3 c33 -3 37 -6 37 -30z m239 16 c4 -9 2 -22 -4 -29 -8
-9 -8 -15 0 -20 12 -8 13 -45 1 -45 -5 0 -11 10 -13 23 -2 14 -11 23 -25 25
-19 3 -23 -1 -23 -22 0 -14 -4 -26 -10 -26 -5 0 -10 25 -10 55 l0 55 39 0 c27
0 41 -5 45 -16z m210 -17 c24 -58 28 -77 17 -77 -6 0 -11 7 -11 15 0 21 -47
19 -59 -2 -5 -10 -12 -16 -14 -13 -7 7 34 110 44 110 5 0 15 -15 23 -33z m378
-6 c-2 -27 1 -32 14 -27 11 4 15 2 11 -8 -3 -7 -1 -18 4 -23 6 -6 -5 -10 -31
-11 -44 -2 -62 17 -40 43 6 8 9 18 6 24 -10 16 6 42 23 39 12 -3 15 -13 13
-37z m358 27 c1 -7 7 -26 14 -43 l13 -30 13 43 c7 23 17 42 23 42 5 0 7 -6 4
-14 -3 -8 -11 -32 -18 -55 -7 -23 -17 -41 -24 -41 -7 0 -17 18 -24 41 -7 23
-15 47 -18 55 -3 8 0 14 6 14 6 0 11 -6 11 -12z m230 -43 c0 -30 -4 -55 -10
-55 -5 0 -10 25 -10 55 0 30 5 55 10 55 6 0 10 -25 10 -55z m187 13 l28 -42 6
45 6 44 1 -57 c1 -32 -1 -58 -5 -58 -5 0 -20 19 -35 43 l-28 42 0 -42 c0 -24
-4 -43 -10 -43 -5 0 -10 25 -10 55 0 30 4 55 10 55 5 0 22 -19 37 -42z m213
17 c0 -20 5 -25 25 -25 20 0 25 5 25 25 0 14 5 25 10 25 6 0 10 -25 10 -55 0
-30 -4 -55 -10 -55 -5 0 -10 11 -10 25 0 20 -5 25 -25 25 -20 0 -25 -5 -25
-25 0 -14 -4 -25 -10 -25 -5 0 -10 25 -10 55 0 30 5 55 10 55 6 0 10 -11 10
-25z"/>
<path d="M1486 3497 l-26 -26 0 -724 c0 -694 1 -726 19 -748 17 -21 29 -24
120 -27 115 -5 293 11 364 33 106 32 180 77 268 165 73 72 94 101 132 180 65
133 89 244 90 400 0 373 -193 657 -508 745 -42 12 -115 19 -247 22 l-187 5
-25 -25z"/>
<path d="M1310 1505 c0 -37 3 -45 18 -45 24 0 42 19 42 45 0 26 -18 45 -42 45
-15 0 -18 -8 -18 -45z"/>
<path d="M1770 1530 c0 -23 22 -27 39 -7 13 16 5 27 -21 27 -11 0 -18 -7 -18
-20z"/>
<path d="M1770 1479 c0 -15 5 -20 22 -17 34 5 37 38 4 38 -20 0 -26 -5 -26
-21z"/>
<path d="M2000 1530 c0 -16 5 -21 23 -18 12 2 22 10 22 18 0 8 -10 16 -22 18
-18 3 -23 -2 -23 -18z"/>
<path d="M2240 1515 c0 -8 7 -15 15 -15 9 0 12 6 9 15 -4 8 -10 15 -15 15 -5
0 -9 -7 -9 -15z"/>
<path d="M2630 1535 c0 -8 5 -15 10 -15 6 0 10 7 10 15 0 8 -4 15 -10 15 -5 0
-10 -7 -10 -15z"/>
<path d="M2616 1485 c-3 -9 1 -18 10 -22 19 -7 26 0 18 21 -8 20 -20 21 -28 1z"/>
</g>
</svg>
